<svg width="50" height="50" viewBox="0 0 50 50" fill="none" xmlns="http://www.w3.org/2000/svg">
<path d="M45.1174 33.0848L42.6782 30.6456C42.3623 30.3299 41.8504 30.3299 41.5347 30.6456L35.6456 36.5347C35.3298 36.8505 35.3298 37.3624 35.6456 37.6781L36.5462 38.5786L35.0356 40.0891C34.7013 40.4235 34.2575 40.6082 33.7851 40.6102L30.1781 40.5402V37.4934L42.7302 24.9414C43.0459 24.6256 43.0459 24.1136 42.7302 23.7979L40.291 21.3588C39.9751 21.043 39.4632 21.043 39.1475 21.3588L27.2455 33.2606C26.8279 33.1235 26.3825 33.0483 25.9197 33.0483C24.837 33.0483 23.8481 33.455 23.0959 34.1229C19.3777 32.9068 16.8084 29.3975 16.8084 25.4735C16.8084 24.3875 17.0022 23.3254 17.3801 22.3114C18.0758 22.1804 18.7228 21.9096 19.2891 21.5272L21.8362 24.0438C21.8406 24.0483 21.8454 24.0519 21.85 24.0562C21.8624 24.0679 21.8749 24.0793 21.888 24.0903C21.8962 24.0971 21.9045 24.1035 21.9128 24.1099C21.9251 24.1193 21.9375 24.1285 21.9503 24.1372C21.9608 24.1443 21.9714 24.1509 21.982 24.1575C21.9933 24.1644 22.0046 24.1711 22.0162 24.1774C22.0294 24.1846 22.0426 24.1912 22.056 24.1976C22.066 24.2023 22.0761 24.2072 22.0863 24.2116C22.1017 24.2182 22.1173 24.224 22.1331 24.2296C22.1394 24.2319 22.1454 24.2347 22.1517 24.2368L25.8633 25.457L27.5563 27.15C27.8821 27.4758 28.31 27.6387 28.7379 27.6387C29.1659 27.6387 29.5937 27.4758 29.9196 27.15L32.1498 24.9198C32.8013 24.2683 32.8013 23.2082 32.1498 22.5566L30.4606 20.8674L29.2812 17.1201C29.278 17.1098 29.2737 17.1001 29.27 17.09C29.265 17.0759 29.2603 17.0619 29.2545 17.0482C29.2482 17.0335 29.241 17.0195 29.234 17.0052C29.2295 16.996 29.2253 16.9865 29.2203 16.9774C29.2114 16.9608 29.2014 16.9451 29.1914 16.9293C29.1874 16.923 29.1838 16.9165 29.1796 16.9102C29.1681 16.8933 29.1559 16.8773 29.1432 16.8614C29.1395 16.8567 29.136 16.8517 29.1321 16.8471C29.1189 16.831 29.1046 16.8159 29.0903 16.801C29.0869 16.7975 29.0837 16.7935 29.0802 16.7899L29.0753 16.7851C29.0738 16.7836 29.0723 16.7821 29.0708 16.7805L19.0633 6.82139C18.5849 6.34293 17.9486 6.07934 17.2719 6.07934C16.6121 6.07934 15.9913 6.33043 15.5171 6.78646L12.1761 3.44546C12.2951 3.15093 12.3583 2.83365 12.3583 2.50645C12.3583 1.83717 12.0977 1.20778 11.6242 0.734286C11.1511 0.260682 10.5219 0 9.85247 0C9.18309 0 8.55381 0.260682 8.08042 0.733962L5.73396 3.08053C5.26068 3.55381 5 4.1832 5 4.85258C5 5.52197 5.26079 6.15125 5.73418 6.62453C6.22266 7.1129 6.86423 7.35709 7.50602 7.35709C7.82524 7.35709 8.14435 7.29639 8.44471 7.17554L11.7874 10.5183C10.8356 11.5088 10.8457 13.0879 11.8215 14.0637L12.1051 14.3472C12.131 14.3731 12.1586 14.396 12.187 14.4177C11.6338 15.2353 11.3104 16.2206 11.3104 17.28C11.3104 17.7921 11.3868 18.2865 11.5274 18.7535C10.5257 20.8847 10.0167 23.1441 10.0167 25.4735C10.0167 29.095 11.2094 32.5075 13.4656 35.3421C15.5546 37.9665 18.4511 39.8842 21.6613 40.7799V44.933H18.159C16.2865 44.933 14.7631 46.4564 14.7631 48.329V49.1914C14.7631 49.638 15.125 50 15.5716 50H36.2681C36.7148 50 37.0767 49.638 37.0767 49.1914V48.329C37.0767 46.4564 35.5532 44.933 33.6807 44.933H30.1783V42.1578L33.7623 42.2273C33.7676 42.2274 33.7728 42.2274 33.778 42.2274C34.6852 42.2274 35.5379 41.8742 36.1794 41.2328L37.6899 39.7223L38.085 40.1174C38.243 40.2752 38.4499 40.3542 38.6568 40.3542C38.8637 40.3542 39.0707 40.2753 39.2287 40.1174L45.1177 34.2283C45.4332 33.9126 45.4332 33.4006 45.1174 33.0848ZM39.7192 23.0739L41.0149 24.3696L29.809 35.5756C29.5526 35.002 29.1733 34.4954 28.7042 34.0889L39.7192 23.0739ZM12.9273 17.2799C12.9273 15.348 14.499 13.7761 16.4311 13.7761C18.3631 13.7761 19.9349 15.348 19.9349 17.2799C19.9349 19.2119 18.3631 20.7837 16.4311 20.7837C14.499 20.7837 12.9273 19.212 12.9273 17.2799ZM28.1392 18.8775L28.8305 21.0741L26.0791 23.8255L23.9058 23.111L28.1392 18.8775ZM31.0065 23.7764L28.7763 26.0066C28.7556 26.0274 28.7211 26.0276 28.7001 26.0066L27.4426 24.749L29.749 22.4426L31.0065 23.7001C31.0275 23.7212 31.0275 23.7553 31.0065 23.7764ZM17.2721 7.69636C17.5169 7.69636 17.7469 7.79167 17.9214 7.9661L27.3654 17.3642L22.4011 22.3284L20.4709 20.4213C21.1475 19.5532 21.552 18.4632 21.552 17.2798C21.552 14.4562 19.2547 12.1589 16.4311 12.1589C15.2455 12.1589 14.1537 12.565 13.2848 13.2439C13.2728 13.2303 13.2612 13.2165 13.2482 13.2035L12.9647 12.9199C12.6074 12.5626 12.6074 11.9812 12.9647 11.6239L16.6238 7.9647C16.7972 7.79167 17.0274 7.69636 17.2721 7.69636ZM11.1731 4.72925L14.3728 7.92891L12.929 9.3729L9.72925 6.17313L11.1731 4.72925ZM6.87749 5.48089C6.70952 5.31303 6.61713 5.08987 6.61713 4.85247C6.61713 4.61508 6.70952 4.39192 6.87749 4.22395L9.22406 1.87738C9.39192 1.70952 9.61508 1.61713 9.85247 1.61713C10.0899 1.61713 10.313 1.70952 10.4811 1.87771C10.649 2.04556 10.7414 2.26873 10.7414 2.50623C10.7414 2.74373 10.649 2.96679 10.481 3.13465L8.13433 5.48089C7.78783 5.82739 7.2241 5.82739 6.87749 5.48089ZM14.7307 34.3348C12.7046 31.7895 11.6336 28.7252 11.6336 25.4734C11.6336 23.7916 11.9304 22.1495 12.5148 20.5744C13.2984 21.5044 14.4057 22.1529 15.6619 22.3429C15.3507 23.3559 15.1913 24.405 15.1913 25.4734C15.1913 29.9106 17.9794 33.897 22.0757 35.4755C21.8102 36.0305 21.6612 36.6514 21.6612 37.3067V39.0909C18.951 38.2395 16.5137 36.5748 14.7307 34.3348ZM35.4593 48.3289V48.3828H16.3801V48.3289C16.3801 47.348 17.1781 46.55 18.1589 46.55H33.6806C34.6613 46.55 35.4593 47.348 35.4593 48.3289ZM23.2783 44.9329V37.3067C23.2783 35.8503 24.4632 34.6654 25.9197 34.6654C27.3762 34.6654 28.561 35.8503 28.561 37.3067V44.9329H23.2783ZM38.6566 38.4021L37.3609 37.1064L42.1065 32.3608L43.4022 33.6565L38.6566 38.4021Z" fill="black"/>
<path d="M16.4331 18.0883C16.8798 18.0883 17.2417 17.7263 17.2417 17.2798C17.2417 16.8332 16.8798 16.4712 16.4331 16.4712H16.432C15.9855 16.4712 15.624 16.8332 15.624 17.2798C15.624 17.7263 15.9866 18.0883 16.4331 18.0883Z" fill="black"/>
<path d="M25.9194 37.1704C25.7069 37.1704 25.499 37.2567 25.348 37.4076C25.1981 37.5585 25.1108 37.7666 25.1108 37.979C25.1108 38.1924 25.1982 38.4005 25.348 38.5514C25.4988 38.7013 25.7069 38.7875 25.9194 38.7875C26.1328 38.7875 26.3409 38.7013 26.4919 38.5514C26.6418 38.4005 26.728 38.1924 26.728 37.979C26.728 37.7666 26.6417 37.5574 26.4919 37.4076C26.3409 37.2567 26.1329 37.1704 25.9194 37.1704Z" fill="black"/>
</svg>
