<svg width="50" height="50" viewBox="0 0 50 50" fill="none" xmlns="http://www.w3.org/2000/svg">
<g clip-path="url(#clip0_1_1418)">
<path d="M44.1667 10.8335H30.8333C30.3725 10.8335 30 11.2068 30 11.6668C30 12.1268 30.3725 12.5002 30.8333 12.5002H44.1667C44.6275 12.5002 45 12.1268 45 11.6668C45 11.2068 44.6275 10.8335 44.1667 10.8335Z" fill="black"/>
<path d="M44.167 5.8335H22.5003C22.0403 5.8335 21.667 6.20683 21.667 6.66683C21.667 7.12683 22.0403 7.50016 22.5003 7.50016H44.167C44.6278 7.50016 45.0003 7.12683 45.0003 6.66683C45.0003 6.20683 44.6278 5.8335 44.167 5.8335Z" fill="black"/>
<path d="M45.0003 16.6668C45.0003 16.2068 44.6278 15.8335 44.167 15.8335H22.5003C22.0403 15.8335 21.667 16.2068 21.667 16.6668C21.667 17.1268 22.0403 17.5002 22.5003 17.5002H44.167C44.6278 17.5002 45.0003 17.1268 45.0003 16.6668Z" fill="black"/>
<path d="M47.5 0H2.5C1.12167 0 0 1.12167 0 2.5V37.5C0 38.8783 1.12167 40 2.5 40H32.5C32.9608 40 33.3333 39.6267 33.3333 39.1667C33.3333 38.7067 32.9608 38.3333 32.5 38.3333H2.5C2.04083 38.3333 1.66667 37.9592 1.66667 37.5V2.5C1.66667 2.04083 2.04083 1.66667 2.5 1.66667H47.5C47.96 1.66667 48.3333 2.04083 48.3333 2.5V22.5C48.3333 22.96 48.7058 23.3333 49.1667 23.3333C49.6275 23.3333 50 22.96 50 22.5V2.5C50 1.12167 48.8783 0 47.5 0Z" fill="black"/>
<path d="M40.8087 20.5942C35.7678 20.5942 31.667 24.6917 31.667 29.7276C31.667 32.5642 32.9662 35.1034 35.0003 36.7817V49.0276C35.0003 49.3351 35.1695 49.6176 35.4403 49.7626C35.7103 49.9076 36.0403 49.8909 36.2953 49.7209L40.8337 46.6959L45.3712 49.7209C45.5103 49.8142 45.6712 49.8609 45.8337 49.8609C45.9687 49.8609 46.1037 49.8284 46.227 49.7626C46.4978 49.6176 46.667 49.3351 46.667 49.0276V36.7367C48.672 35.0584 49.9503 32.5401 49.9503 29.7276C49.9503 24.6917 45.8495 20.5942 40.8087 20.5942ZM45.0003 47.4709L41.2962 45.0017C41.0162 44.8151 40.652 44.8151 40.372 45.0017L36.667 47.4709V37.8667C37.6845 38.3867 38.8087 38.7234 40.0003 38.8284V41.6667C40.0003 42.1267 40.3728 42.5001 40.8337 42.5001C41.2945 42.5001 41.667 42.1267 41.667 41.6667V38.8259C42.8595 38.7142 43.9845 38.3692 45.0003 37.8426V47.4709ZM40.8087 37.2034C36.687 37.2034 33.3337 33.8501 33.3337 29.7284C33.3337 25.6117 36.6862 22.2617 40.8087 22.2617C44.9312 22.2617 48.2845 25.6117 48.2845 29.7284C48.2837 33.8501 44.9303 37.2034 40.8087 37.2034Z" fill="black"/>
<path d="M40.806 25.0352C40.3452 25.0352 39.9727 25.4085 39.9727 25.8685C39.9727 26.3285 40.3452 26.7018 40.806 26.7018C42.4768 26.7018 43.8368 28.061 43.8368 29.7318C43.8368 31.4027 42.4768 32.7618 40.806 32.7618C40.3452 32.7618 39.9727 33.1352 39.9727 33.5952C39.9727 34.0552 40.3452 34.4285 40.806 34.4285C43.396 34.4285 45.5035 32.3218 45.5035 29.7318C45.5035 27.1427 43.396 25.0352 40.806 25.0352Z" fill="black"/>
<path d="M14.1344 29.3508C14.0361 29.0491 13.7752 28.8291 13.4611 28.7833L10.6777 28.3799L9.43023 25.8558C9.29023 25.5716 9.00023 25.3916 8.68357 25.3916H8.68273C8.36523 25.3916 8.07523 25.5724 7.93607 25.8574L6.6969 28.3799L3.91357 28.7833C3.60023 28.8291 3.33857 29.0483 3.24023 29.3508C3.1419 29.6524 3.22357 29.9833 3.45107 30.2049L5.46273 32.1666L4.98773 34.9341C4.9344 35.2466 5.0619 35.5624 5.31857 35.7491C5.46357 35.8549 5.63607 35.9083 5.80857 35.9083C5.94107 35.9083 6.07357 35.8766 6.19607 35.8133L8.68357 34.5074L11.1802 35.8133C11.4594 35.9599 11.8011 35.9358 12.0569 35.7483C12.3127 35.5616 12.4411 35.2458 12.3869 34.9333L11.9119 32.1649L13.9227 30.2041C14.1502 29.9833 14.2327 29.6524 14.1344 29.3508ZM10.4352 31.2783C10.2394 31.4691 10.1494 31.7458 10.1961 32.0158L10.4602 33.5549L9.0694 32.8274C8.94857 32.7641 8.81607 32.7324 8.68357 32.7324C8.55023 32.7324 8.41773 32.7641 8.29607 32.8274L6.91607 33.5524L7.1794 32.0158C7.22607 31.7449 7.13607 31.4691 6.94023 31.2783L5.8244 30.1899L7.3694 29.9658C7.64107 29.9266 7.87607 29.7549 7.99773 29.5083L8.68523 28.1091L9.37773 29.5099C9.4994 29.7558 9.73357 29.9266 10.0052 29.9658L11.5502 30.1899L10.4352 31.2783Z" fill="black"/>
<path d="M27.4676 29.3508C27.3692 29.0491 27.1084 28.8291 26.7942 28.7833L24.0109 28.3799L22.7634 25.8558C22.6234 25.5716 22.3334 25.3916 22.0167 25.3916H22.0159C21.6984 25.3916 21.4084 25.5724 21.2692 25.8574L20.0301 28.3799L17.2476 28.7833C16.9342 28.8291 16.6726 29.0483 16.5742 29.3508C16.4759 29.6524 16.5576 29.9833 16.7851 30.2049L18.7967 32.1666L18.3217 34.9341C18.2684 35.2466 18.3959 35.5624 18.6526 35.7491C18.7976 35.8549 18.9701 35.9083 19.1426 35.9083C19.2751 35.9083 19.4076 35.8766 19.5301 35.8133L22.0176 34.5074L24.5142 35.8133C24.7942 35.9599 25.1351 35.9358 25.3909 35.7483C25.6467 35.5616 25.7751 35.2458 25.7209 34.9333L25.2459 32.1649L27.2567 30.2041C27.4834 29.9833 27.5651 29.6524 27.4676 29.3508ZM23.7684 31.2783C23.5726 31.4691 23.4826 31.7458 23.5292 32.0158L23.7934 33.5549L22.4026 32.8274C22.2817 32.7641 22.1492 32.7324 22.0167 32.7324C21.8834 32.7324 21.7509 32.7641 21.6292 32.8274L20.2492 33.5524L20.5126 32.0158C20.5592 31.7449 20.4692 31.4691 20.2734 31.2783L19.1576 30.1899L20.7026 29.9658C20.9742 29.9266 21.2092 29.7549 21.3309 29.5083L22.0184 28.1091L22.7109 29.5099C22.8326 29.7558 23.0667 29.9266 23.3384 29.9658L24.8834 30.1899L23.7684 31.2783Z" fill="black"/>
<path d="M5.83333 7.50016H19.1667C19.6267 7.50016 20 7.12683 20 6.66683C20 6.20683 19.6267 5.8335 19.1667 5.8335H5.83333C5.37333 5.8335 5 6.20683 5 6.66683C5 7.12683 5.37333 7.50016 5.83333 7.50016Z" fill="black"/>
<path d="M5.83333 12.5002H27.5C27.9608 12.5002 28.3333 12.1268 28.3333 11.6668C28.3333 11.2068 27.9608 10.8335 27.5 10.8335H5.83333C5.37333 10.8335 5 11.2068 5 11.6668C5 12.1268 5.37333 12.5002 5.83333 12.5002Z" fill="black"/>
<path d="M5.83333 17.5002H19.1667C19.6267 17.5002 20 17.1268 20 16.6668C20 16.2068 19.6267 15.8335 19.1667 15.8335H5.83333C5.37333 15.8335 5 16.2068 5 16.6668C5 17.1268 5.37333 17.5002 5.83333 17.5002Z" fill="black"/>
<path d="M28.3333 21.6668C28.3333 21.2068 27.9608 20.8335 27.5 20.8335H5.83333C5.37333 20.8335 5 21.2068 5 21.6668C5 22.1268 5.37333 22.5002 5.83333 22.5002H27.5C27.9608 22.5002 28.3333 22.1268 28.3333 21.6668Z" fill="black"/>
</g>
<defs>
<clipPath id="clip0_1_1418">
<rect width="50" height="50" fill="white"/>
</clipPath>
</defs>
</svg>
