<svg width="352" height="342" viewBox="0 0 352 342" fill="none" xmlns="http://www.w3.org/2000/svg">
<g clip-path="url(#clip0_1_1351)">
<path d="M139.094 150.887C127.96 166.609 112.945 176.175 94.0508 179.588C75.1563 183 57.7439 179.291 41.8132 168.457C25.8364 157.369 16.1187 142.25 12.66 123.1C9.29346 104.461 13.2821 87.1299 24.6258 71.1071C35.9234 54.8289 50.7641 45.0296 69.1479 41.7092C88.0421 38.2966 105.478 42.1345 121.455 53.2228C137.386 64.0558 147.08 79.0473 150.539 98.1972C153.998 117.347 150.183 134.91 139.094 150.887ZM97.0116 327.362L56.3161 299.118L254.024 14.2502L294.789 42.8772L97.0116 327.362ZM63.7115 136.422C70.9001 141.188 78.7074 142.81 87.1333 141.288C95.559 139.766 102.179 135.539 106.99 128.606C112.011 121.371 113.761 113.541 112.239 105.115C110.718 96.6887 106.362 90.0928 99.1737 85.3269C92.1943 80.2597 84.4911 78.4871 76.0654 80.0089C67.6395 81.5307 60.9159 85.909 55.8948 93.1437C51.0828 100.077 49.4378 107.757 50.9596 116.183C52.4815 124.609 56.7322 131.355 63.7115 136.422ZM326.931 271.202C315.797 286.924 300.782 296.49 281.888 299.903C262.993 303.316 245.581 299.606 229.65 288.773C213.673 277.684 203.955 262.565 200.497 243.415C197.13 224.776 201.119 207.445 212.463 191.422C223.76 175.144 238.601 165.345 256.985 162.024C275.879 158.612 293.315 162.45 309.292 173.538C325.222 184.371 334.917 199.363 338.376 218.512C341.834 237.662 338.02 255.225 326.931 271.202ZM251.549 256.738C258.737 261.503 266.544 263.125 274.97 261.604C283.396 260.082 290.015 255.854 294.827 248.921C299.848 241.686 301.598 233.856 300.076 225.43C298.554 217.004 294.199 210.408 287.01 205.642C280.031 200.575 272.328 198.803 263.902 200.324C255.477 201.846 248.753 206.224 243.732 213.459C238.919 220.392 237.274 228.072 238.796 236.498C240.318 244.924 244.569 251.671 251.549 256.738Z" fill="white"/>
</g>
<defs>
<clipPath id="clip0_1_1351">
<rect width="304.131" height="292.175" fill="white" transform="translate(0 54.0559) rotate(-10.2381)"/>
</clipPath>
</defs>
</svg>
